<?xml version="1.0" standalone="no"?>
<!DOCTYPE svg PUBLIC "-//W3C//DTD SVG 20010904//EN"
 "http://www.w3.org/TR/2001/REC-SVG-20010904/DTD/svg10.dtd">
<svg version="1.0" xmlns="http://www.w3.org/2000/svg"
 width="741.000000pt" height="741.000000pt" viewBox="0 0 741.000000 741.000000"
 preserveAspectRatio="xMidYMid meet">
<metadata>
Created by potrace 1.14, written by Peter Selinger 2001-2017
</metadata>
<g transform="translate(0.000000,741.000000) scale(0.100000,-0.100000)"
fill="#000000" stroke="none">
<path d="M6239 5640 c-47 -4 -90 -10 -96 -13 -7 -5 -6 -25 3 -64 17 -72 9
-153 -21 -213 -12 -25 -52 -74 -88 -109 -37 -35 -65 -67 -62 -71 3 -6 395 -2
402 4 2 2 10 94 27 318 l11 158 -45 -1 c-25 -1 -84 -5 -131 -9z"/>
<path d="M2570 5606 l-45 -12 -6 -119 c-4 -66 -7 -172 -8 -237 l-1 -116 -82
-6 c-46 -3 -238 -11 -428 -17 -189 -6 -349 -13 -355 -17 -5 -3 -24 -5 -42 -3
-28 2 -46 -8 -111 -60 -87 -69 -110 -97 -71 -85 65 21 77 19 93 -12 9 -17 16
-49 16 -70 0 -22 11 -59 25 -86 27 -51 31 -98 14 -160 -8 -30 -7 -51 4 -95 19
-70 36 -193 40 -293 3 -75 3 -78 -27 -107 -22 -21 -44 -30 -76 -33 l-45 -4
-265 219 c-146 121 -272 226 -280 232 -12 10 -52 11 -190 3 -96 -5 -183 -10
-193 -10 -12 1 -16 -5 -13 -16 2 -9 39 -159 82 -332 42 -173 85 -333 94 -355
46 -105 300 -429 469 -596 59 -58 296 -240 367 -282 25 -15 286 -77 323 -77
37 0 40 2 97 90 40 60 64 88 74 85 51 -14 1130 -305 1133 -305 2 0 2 -51 -1
-112 -2 -62 0 -131 5 -152 l9 -40 114 -36 c63 -20 223 -69 355 -109 132 -40
244 -77 249 -82 6 -5 18 -9 28 -9 27 0 552 -162 556 -172 2 -4 14 -8 27 -8 18
0 355 -100 613 -181 18 -6 30 -15 27 -20 -3 -4 9 -8 27 -7 18 0 93 -18 166
-41 74 -22 141 -41 149 -41 9 0 97 47 197 103 99 57 274 152 387 210 l206 107
6 48 c4 26 13 135 22 242 9 107 18 205 20 216 l5 21 121 -24 c83 -17 125 -21
132 -14 5 5 21 119 34 253 22 219 23 246 9 283 -8 22 -36 99 -62 170 -26 72
-48 131 -49 132 -1 2 -66 12 -146 23 -131 19 -182 34 -564 160 -231 76 -467
153 -525 170 -58 17 -138 44 -178 58 l-73 27 6 130 c3 71 8 176 11 233 4 85 3
103 -10 108 -14 5 -990 -147 -1067 -167 -27 -7 -65 -3 -152 15 -113 22 -119
25 -199 84 -46 34 -130 94 -188 133 -58 40 -109 77 -115 84 -19 22 -284 194
-396 257 l-114 64 -3 87 -3 87 53 0 c29 0 295 -7 590 -16 295 -8 554 -14 575
-12 l38 4 -69 33 c-65 31 -78 33 -205 38 -76 4 -140 11 -147 17 -8 8 183 17
695 34 751 24 1028 36 1038 45 15 15 -57 78 -127 110 -60 28 -82 45 -110 84
-47 65 -85 132 -94 166 -4 16 -13 27 -24 27 -9 0 -353 -25 -764 -54 -731 -53
-749 -54 -785 -36 -126 59 -206 78 -488 115 -364 47 -353 46 -405 31z m753
-523 c-7 -2 -19 -2 -25 0 -7 3 -2 5 12 5 14 0 19 -2 13 -5z m165 0 c-16 -2
-40 -2 -55 0 -16 2 -3 4 27 4 30 0 43 -2 28 -4z m75 0 c-7 -2 -21 -2 -30 0
-10 3 -4 5 12 5 17 0 24 -2 18 -5z"/>
</g>
</svg>
